<?xml version="1.0" standalone="no"?>
<!DOCTYPE svg PUBLIC "-//W3C//DTD SVG 20010904//EN"
 "http://www.w3.org/TR/2001/REC-SVG-20010904/DTD/svg10.dtd">
<svg version="1.0" xmlns="http://www.w3.org/2000/svg"
 width="54.000000pt" height="46.000000pt" viewBox="0 0 54.000000 46.000000"
 preserveAspectRatio="xMidYMid meet">

<g transform="translate(0.000000,46.000000) scale(0.100000,-0.100000)"
fill="#000000" stroke="none">
<path d="M253 413 c9 -2 23 -2 30 0 6 3 -1 5 -18 5 -16 0 -22 -2 -12 -5z"/>
<path d="M153 381 c-17 -16 -29 -32 -25 -36 4 -3 1 -10 -7 -14 -7 -5 -14 -33
-17 -65 -3 -45 -1 -56 11 -56 11 0 15 13 15 53 0 61 25 117 60 134 14 7 18 13
10 13 -8 -1 -29 -14 -47 -29z"/>
<path d="M338 397 c37 -21 52 -53 59 -122 4 -45 10 -65 19 -65 18 0 11 109 -7
121 -10 6 -10 11 1 23 11 14 11 16 -2 11 -8 -3 -25 6 -38 20 -13 14 -31 25
-39 25 -11 -1 -9 -5 7 -13z"/>
<path d="M177 294 c-12 -12 -8 -41 7 -53 17 -14 39 9 34 36 -3 18 -29 29 -41
17z"/>
<path d="M317 294 c-12 -12 -8 -41 7 -53 17 -14 39 9 34 36 -3 18 -29 29 -41
17z"/>
<path d="M106 174 c-4 -14 -4 -34 -1 -43 7 -24 76 -78 122 -97 32 -14 40 -14
77 0 51 20 126 87 125 112 0 11 -5 28 -10 39 -7 16 -8 13 -4 -11 4 -23 0 -35
-16 -50 -18 -16 -36 -19 -134 -19 -98 0 -116 3 -134 19 -16 15 -20 27 -16 48
8 35 -1 37 -9 2z m204 -124 c-18 -12 -68 -12 -95 0 -14 6 0 9 45 9 45 1 60 -2
50 -9z"/>
<path d="M196 163 c-11 -11 -6 -23 9 -23 8 0 15 4 15 9 0 13 -16 22 -24 14z"/>
<path d="M316 163 c-11 -11 -6 -23 9 -23 8 0 15 4 15 9 0 13 -16 22 -24 14z"/>
</g>
</svg>
