<?xml version="1.0" standalone="no"?>
<!DOCTYPE svg PUBLIC "-//W3C//DTD SVG 20010904//EN"
 "http://www.w3.org/TR/2001/REC-SVG-20010904/DTD/svg10.dtd">
<svg version="1.0" xmlns="http://www.w3.org/2000/svg"
 width="400.000000pt" height="400.000000pt" viewBox="0 0 400.000000 400.000000"
 preserveAspectRatio="xMidYMid meet">

<g transform="translate(0.000000,400.000000) scale(0.100000,-0.100000)"
fill="#000000" stroke="none">
<path d="M0 2000 l0 -2000 349 0 348 0 -10 51 c-12 62 0 122 44 216 27 57 30
74 25 124 -3 31 0 74 5 94 8 27 8 40 -1 45 -6 4 -11 15 -11 26 0 10 0 52 1 93
0 41 -2 76 -4 79 -3 2 2 11 10 19 12 12 12 18 2 31 -11 13 -11 14 0 8 21 -12
42 14 42 51 0 26 5 36 20 40 24 6 24 15 6 76 -7 25 -11 48 -9 51 3 3 7 20 9
38 7 53 13 66 39 72 46 12 89 -24 112 -93 17 -54 16 -5 -1 54 -25 83 12 215
61 215 42 0 62 -18 94 -86 32 -69 45 -80 30 -26 -6 20 -6 32 0 32 5 0 9 -11 9
-24 0 -14 4 -28 10 -31 13 -8 3 92 -11 114 -9 13 -10 12 -6 -7 3 -12 1 -22 -4
-22 -5 0 -9 6 -9 13 0 9 -2 9 -9 -1 -6 -10 -10 -10 -20 2 -7 8 -10 20 -6 26 4
6 3 10 -2 9 -16 -2 -53 13 -53 23 0 5 4 7 9 3 5 -3 12 -1 16 5 4 6 -5 10 -19
10 -14 0 -26 -4 -26 -10 0 -5 -5 -10 -11 -10 -23 0 12 29 39 32 30 3 86 -38
75 -55 -3 -6 -1 -7 5 -3 7 4 3 19 -13 43 -14 20 -25 44 -25 54 0 11 -7 19 -16
19 -19 0 -92 75 -137 139 -48 69 -77 164 -77 252 0 49 -7 96 -20 134 -11 32
-17 55 -13 52 3 -4 12 -2 20 4 10 9 13 8 13 -5 0 -10 -4 -14 -10 -11 -13 8
-13 -15 0 -35 8 -13 11 -11 16 8 7 23 19 29 29 13 3 -6 -4 -15 -15 -21 -27
-14 -16 -30 20 -30 16 0 32 -5 35 -10 3 -6 12 -10 18 -10 7 0 6 4 -3 10 -12 8
-10 10 8 10 13 0 20 4 17 10 -3 6 0 10 9 10 8 0 16 -5 18 -10 2 -7 16 -6 38 4
19 8 28 15 19 16 -25 0 -69 54 -76 92 -3 24 -13 40 -29 49 -40 21 -25 53 19
41 17 -4 42 -47 39 -64 -1 -5 -1 -8 0 -8 2 0 21 -7 43 -14 25 -9 47 -11 61 -5
28 10 49 -12 41 -42 -5 -17 -3 -18 9 -8 8 7 13 18 10 26 -3 7 -1 13 4 13 6 0
10 9 10 19 0 11 5 21 12 23 14 5 -22 60 -62 95 -14 12 -20 23 -14 23 6 0 21
-11 34 -25 34 -36 42 -31 36 23 -4 33 -3 38 3 17 7 -27 8 -24 19 35 l11 65 -2
-72 c-2 -40 1 -73 4 -73 15 0 57 108 68 175 7 38 21 106 32 150 11 44 21 89
23 100 1 11 8 30 14 42 7 12 12 31 12 42 0 11 23 87 51 168 37 108 49 134 44
98 -8 -60 -8 -50 -6 -104 1 -28 5 -41 10 -35 11 11 21 104 11 104 -4 0 -5 10
-3 23 3 14 12 23 25 24 16 2 19 -3 15 -23 -4 -25 7 -34 16 -11 3 6 5 -4 5 -23
0 -51 -23 -178 -30 -160 -3 8 -3 -12 -1 -45 2 -39 0 -53 -5 -40 -8 17 -10 13
-16 -20 -5 -26 -4 -41 3 -43 15 -5 14 -22 -2 -22 -14 0 -36 -64 -39 -112 -1
-28 -2 -26 -7 12 -4 25 -7 -26 -7 -112 1 -117 4 -158 13 -158 14 0 37 101 57
255 37 280 70 493 81 530 l12 40 1 -64 c2 -67 12 -99 12 -40 1 30 2 32 12 15
7 -13 9 -69 4 -175 -6 -144 -5 -154 9 -126 8 17 13 22 10 12 -3 -10 -5 -55 -5
-99 0 -93 -7 -97 -19 -12 l-9 59 -1 -67 c-1 -57 -4 -68 -18 -69 -67 -3 -99
-18 -42 -20 19 -1 40 -1 47 0 7 1 12 -12 13 -34 1 -19 3 -39 4 -45 1 -5 3 -56
5 -112 1 -95 3 -101 15 -73 10 23 20 30 42 31 15 0 41 4 57 9 20 5 27 5 22 -3
-3 -6 -2 -13 4 -17 5 -3 10 2 10 13 0 21 38 42 75 42 13 0 27 5 31 11 4 8 -1
9 -16 4 -15 -5 -25 -2 -31 6 -6 10 -9 10 -9 2 0 -7 -7 -10 -16 -6 -14 5 -16
17 -10 76 3 38 9 74 13 80 6 10 186 4 215 -8 13 -5 17 -23 20 -81 2 -44 -1
-74 -7 -75 -5 -1 -28 -1 -50 0 l-40 0 42 -12 c23 -7 45 -16 49 -20 5 -4 1 -5
-9 -1 -9 3 -23 2 -30 -4 -6 -5 -52 -15 -102 -22 -49 -6 -99 -17 -110 -24 -11
-7 -38 -19 -60 -26 -22 -7 -44 -17 -50 -22 -6 -6 -3 -7 10 -3 15 5 13 1 -9
-20 -22 -20 -26 -29 -16 -35 15 -9 65 -6 93 5 13 6 17 2 17 -18 0 -21 5 -25
37 -29 24 -3 43 1 51 9 20 20 27 16 45 -22 15 -32 20 -35 60 -35 30 0 53 7 71
21 31 25 34 23 42 -19 5 -26 3 -32 -11 -32 -10 0 -26 -6 -34 -14 -9 -8 -32
-19 -51 -24 l-35 -10 45 -1 c25 0 58 6 74 14 l29 15 -7 -50 c-5 -41 -4 -50 8
-50 9 0 18 -12 22 -27 10 -48 14 -50 10 -5 -3 34 0 44 15 52 21 12 21 13 40
-110 14 -90 24 -115 35 -85 4 10 -2 79 -15 155 -12 74 -26 178 -31 230 -17
172 -29 259 -40 280 -6 11 -8 24 -5 29 3 5 1 11 -5 13 -5 1 -12 37 -14 78 -4
50 -3 65 3 45 8 -29 9 -29 10 -5 0 15 -3 30 -8 35 -5 6 -15 66 -21 135 -6 69
-20 161 -31 205 -10 44 -19 100 -18 125 l0 45 17 -35 c9 -19 20 -37 23 -40 3
-3 11 -14 17 -25 19 -34 15 7 -7 62 -10 26 -22 64 -26 83 -7 33 -6 34 9 15 8
-11 16 -32 16 -47 0 -16 4 -28 9 -28 5 0 13 -9 16 -20 3 -11 12 -20 20 -20 15
0 31 -96 22 -131 -3 -12 -2 -31 3 -43 5 -11 14 -88 20 -171 14 -189 34 -318
45 -290 7 16 11 11 23 -30 7 -28 15 -63 17 -80 10 -72 24 -109 26 -64 1 26 3
47 19 149 6 36 13 79 15 95 3 17 -1 11 -9 -15 l-14 -45 1 85 c3 153 -11 374
-27 435 -9 32 -16 68 -16 78 0 10 -5 15 -11 12 -6 -4 -13 2 -16 14 -3 12 -10
21 -15 21 -6 0 -8 19 -7 44 2 24 0 42 -4 39 -5 -3 -8 -28 -6 -57 3 -78 0 -116
-11 -116 -14 0 -12 36 3 60 9 15 9 23 1 28 -7 4 -21 48 -33 97 -14 54 -34 107
-51 131 -15 23 -31 57 -35 75 -4 19 -19 70 -35 114 -16 44 -40 126 -54 182
-30 121 -54 329 -39 344 12 12 34 -19 52 -74 7 -21 15 -36 18 -33 3 3 0 19 -7
35 -6 16 -10 38 -8 48 4 22 52 -63 127 -227 29 -63 56 -122 60 -130 4 -8 16
-42 27 -75 10 -33 20 -53 22 -44 3 15 -45 167 -93 294 -12 34 -49 116 -80 183
l-58 122 -324 0 c-194 0 -330 -4 -341 -10 -9 -5 -46 -19 -82 -31 -57 -18 -119
-46 -200 -90 -28 -15 -142 -112 -170 -144 -118 -133 -195 -237 -235 -315 -10
-19 -20 -30 -22 -23 -4 11 64 140 91 173 7 8 21 32 31 53 32 61 139 171 217
223 40 26 80 54 88 62 8 9 38 30 67 48 28 19 54 38 58 44 4 7 -195 10 -604 10
l-611 0 0 -2000z m1606 1767 c-14 -28 -51 -113 -82 -187 -31 -74 -59 -139 -63
-145 -3 -5 -11 -25 -16 -44 -6 -19 -17 -36 -25 -38 -10 -3 -11 -2 -4 4 6 4 16
31 23 58 7 28 27 91 46 140 18 50 36 103 39 118 4 15 21 49 39 75 18 26 39 60
47 76 11 21 16 25 18 13 2 -10 -8 -41 -22 -70z m263 -173 c6 -69 11 -148 10
-177 l-1 -52 -18 62 c-25 86 -34 179 -25 271 10 99 19 70 34 -104z m85 119
c16 -127 18 -188 6 -177 -10 10 -18 56 -33 192 -4 30 -1 42 8 42 8 0 15 -21
19 -57z m-152 -129 c-3 -115 -8 -138 -24 -110 -8 15 -12 16 -19 5 -12 -19 -12
25 2 114 13 90 16 100 32 94 9 -3 11 -31 9 -103z m-1157 -254 c-4 -12 -9 -19
-12 -17 -3 3 -2 15 2 27 4 12 9 19 12 17 3 -3 2 -15 -2 -27z m1102 -162 c-2
-13 -4 -3 -4 22 0 25 2 35 4 23 2 -13 2 -33 0 -45z m203 17 c0 -5 -5 -3 -10 5
-5 8 -10 20 -10 25 0 6 5 3 10 -5 5 -8 10 -19 10 -25z m-517 -40 c-1 -30 -7
-71 -13 -90 -7 -22 -9 -59 -5 -99 6 -57 5 -67 -15 -94 -14 -19 -21 -39 -17
-51 3 -12 1 -19 -3 -16 -5 3 -11 -21 -15 -52 -9 -85 -12 -96 -33 -119 -27 -28
-42 -59 -42 -83 0 -12 -4 -21 -9 -21 -5 0 -12 -16 -16 -36 -3 -20 -9 -34 -11
-31 -3 3 2 32 10 64 9 33 18 111 21 174 5 114 25 227 51 284 7 17 16 42 20 58
3 15 10 27 15 27 5 0 9 15 10 33 0 17 3 26 6 20 7 -19 23 -16 21 5 -2 23 13
82 21 82 3 0 5 -25 4 -55z m-144 -19 c-6 -20 -7 -51 -4 -68 5 -20 4 -28 -3
-24 -6 3 -8 -2 -5 -13 3 -10 0 -22 -6 -25 -6 -4 -11 -19 -11 -34 0 -15 -6 -36
-14 -47 -7 -11 -28 -64 -46 -119 -18 -55 -36 -93 -40 -87 -10 16 7 114 30 182
11 30 20 63 20 72 0 9 10 25 21 36 13 12 19 26 15 36 -3 9 0 18 9 21 8 4 15
14 15 23 0 22 21 94 25 89 3 -2 0 -21 -6 -42z m17 -33 c-11 -20 -15 -23 -16
-10 0 21 24 61 28 48 2 -6 -4 -22 -12 -38z m782 1 c-3 -14 -5 -12 -10 9 -3 19
-2 25 4 19 6 -6 8 -18 6 -28z m-231 -16 c-3 -8 -6 -5 -6 6 -1 11 2 17 5 13 3
-3 4 -12 1 -19z m111 -18 c-3 -17 -1 -33 4 -36 4 -3 8 -13 8 -22 0 -12 -4 -9
-13 8 -12 23 -11 80 0 80 3 0 3 -14 1 -30z m-141 -12 c-3 -7 -5 -2 -5 12 0 14
2 19 5 13 2 -7 2 -19 0 -25z m21 -45 c-1 -27 2 -102 6 -168 4 -82 3 -115 -4
-105 -9 13 -10 13 -11 0 -1 -29 -18 24 -20 65 l-2 40 -7 -45 c-6 -41 -7 -39
-8 25 -1 81 20 220 31 209 4 -4 7 0 7 9 0 10 2 17 4 17 3 0 4 -21 4 -47z
m-783 -3 c-4 -12 -9 -19 -12 -17 -3 3 -2 15 2 27 4 12 9 19 12 17 3 -3 2 -15
-2 -27z m792 -32 c-3 -7 -5 -2 -5 12 0 14 2 19 5 13 2 -7 2 -19 0 -25z m141
-23 c-3 -3 -9 2 -12 12 -6 14 -5 15 5 6 7 -7 10 -15 7 -18z m-237 -153 c-12
-122 -29 -179 -32 -107 l-2 40 -6 -35 c-4 -19 -4 -39 0 -45 3 -5 9 -35 12 -65
4 -37 2 -49 -4 -35 -6 14 -8 7 -4 -25 4 -39 3 -41 -5 -15 -5 16 -7 54 -3 82 4
35 2 53 -5 53 -6 0 -13 -8 -15 -17 -2 -10 -2 0 0 22 4 39 4 40 -11 15 -15 -24
-15 -24 -15 25 1 28 5 77 9 110 7 60 8 57 14 -37 4 -60 16 -37 16 29 0 58 3
72 18 79 9 4 20 6 25 6 4 -1 8 15 8 36 1 20 3 29 6 18 3 -10 0 -70 -6 -134z
m-729 66 c-7 -7 -12 -21 -12 -32 0 -42 -17 -47 -18 -6 -1 29 2 40 13 40 8 0
15 5 15 12 0 6 3 8 7 5 4 -4 1 -13 -5 -19z m878 -10 c0 -16 3 -19 9 -10 10 16
35 -44 87 -208 20 -63 41 -120 45 -126 5 -6 12 -32 15 -58 l7 -46 -29 5 c-16
3 -67 12 -113 20 -45 7 -85 16 -87 18 -2 2 0 37 6 78 5 41 12 92 14 114 11
116 20 165 26 154 5 -6 5 9 3 35 -4 31 -2 46 6 46 6 0 11 -10 11 -22z m-781
-173 c-10 -94 -19 -187 -19 -207 0 -21 -3 -38 -6 -38 -20 0 -115 33 -120 42
-4 6 1 17 10 23 9 7 20 29 23 49 3 19 9 34 12 31 4 -2 13 17 20 43 7 26 19 61
26 77 7 17 19 47 26 68 7 20 16 37 20 37 4 0 10 12 13 26 15 58 13 10 -5 -151z
m658 103 c-3 -8 -6 -5 -6 6 -1 11 2 17 5 13 3 -3 4 -12 1 -19z m-12 -295 c-3
-20 -12 -33 -20 -33 -19 0 -19 -4 2 170 l18 145 3 -125 c2 -69 0 -140 -3 -157z
m41 191 c-7 -19 -26 -18 -26 1 0 8 5 15 10 15 6 0 11 8 11 18 1 16 2 16 6 -1
3 -10 2 -25 -1 -33z m-1149 -51 c-3 -10 -5 -4 -5 12 0 17 2 24 5 18 2 -7 2
-21 0 -30z m1130 -5 c-3 -8 -6 -5 -6 6 -1 11 2 17 5 13 3 -3 4 -12 1 -19z
m-1208 -135 c1 -17 -3 -35 -9 -38 -6 -4 -10 17 -9 57 1 47 3 57 9 38 4 -14 8
-39 9 -57z m1108 5 c-3 -7 -5 -2 -5 12 0 14 2 19 5 13 2 -7 2 -19 0 -25z
m-183 -13 c-5 -20 -9 -24 -18 -14 -8 8 -8 13 2 16 6 3 12 12 12 21 0 8 2 13 5
10 4 -3 3 -18 -1 -33z m210 -20 c-4 -8 -8 -15 -10 -15 -2 0 -4 7 -4 15 0 8 4
15 10 15 5 0 7 -7 4 -15z m-227 -47 c-3 -8 -6 -5 -6 6 -1 11 2 17 5 13 3 -3 4
-12 1 -19z m278 -62 c9 -66 4 -109 -13 -112 -7 -1 -8 0 -2 3 5 2 10 11 10 19
0 9 -4 12 -10 9 -5 -3 -10 2 -10 12 0 15 -2 16 -10 3 -7 -10 -10 7 -10 57 0
66 2 71 19 66 15 -4 21 -17 26 -57z m-725 -1 c43 -22 50 -29 50 -55 0 -17 -4
-30 -10 -30 -5 0 -10 3 -10 8 0 4 -27 18 -60 31 -69 28 -83 65 -27 70 4 1 30
-10 57 -24z m1079 -109 c2 -61 -17 -9 -21 59 l-5 70 12 -50 c7 -27 14 -63 14
-79z m-1056 18 c16 -14 23 -25 16 -29 -6 -4 -21 3 -34 15 -13 12 -28 19 -34
15 -6 -3 -11 -2 -11 4 0 6 -8 7 -17 4 -15 -6 -16 -5 -3 10 18 19 44 13 83 -19z
m619 -16 c-6 -6 -7 0 -4 19 5 21 7 23 10 9 2 -10 0 -22 -6 -28z m-1058 -9 c3
-17 5 -52 5 -78 -1 -42 -2 -43 -9 -16 -7 28 -8 27 -9 -13 -1 -26 -5 -41 -11
-37 -16 10 -12 -2 7 -20 13 -14 16 -37 16 -122 0 -69 3 -100 9 -92 7 10 8 6 5
-14 -2 -15 0 -30 4 -33 5 -3 9 4 9 15 0 12 5 21 10 21 16 0 9 -282 -7 -287 -8
-3 -13 12 -16 44 -2 29 -4 12 -5 -42 -2 -62 -5 -85 -12 -75 -8 12 -10 8 -11
-15 -2 -30 -2 -30 -9 5 -6 30 -8 31 -10 10 -2 -19 -4 -16 -11 15 -13 63 -37
281 -44 390 -3 55 -8 131 -11 169 -4 47 -2 66 5 61 6 -3 11 -1 11 4 0 21 19
11 23 -11 2 -13 5 0 6 27 1 36 4 46 11 35 5 -8 10 -28 11 -45 1 -27 2 -26 10
10 4 22 6 59 2 83 -6 49 11 58 21 11z m843 -36 c-3 -10 -5 -2 -5 17 0 19 2 27
5 18 2 -10 2 -26 0 -35z m319 28 c-6 -9 -46 -22 -46 -15 0 3 10 9 23 14 29 11
29 11 23 1z m-933 -59 c-7 -27 15 -75 31 -69 8 3 17 -1 20 -10 4 -9 13 -13 21
-9 19 7 33 -23 16 -33 -19 -12 -3 -37 47 -76 44 -34 45 -36 17 -29 -69 16
-130 65 -140 111 -4 15 -11 38 -16 51 -12 29 -12 95 0 88 5 -3 7 -14 4 -24z
m197 -26 c0 -16 -18 -31 -27 -22 -8 8 5 36 17 36 5 0 10 -6 10 -14z m-429 -59
c-10 -9 -11 -8 -5 6 3 10 9 15 12 12 3 -3 0 -11 -7 -18z m1339 -12 c0 -8 -7
-15 -15 -15 -8 0 -15 7 -15 15 0 8 7 15 15 15 8 0 15 -7 15 -15z m-1174 -20
c-4 -14 -2 -25 3 -25 13 0 31 -57 25 -75 -4 -8 -1 -15 7 -15 7 0 10 -3 6 -6
-3 -4 1 -20 9 -37 11 -21 13 -36 6 -51 -18 -42 -31 -89 -26 -97 3 -5 1 -9 -5
-9 -6 0 -16 -11 -23 -25 l-13 -25 -48 46 c-26 26 -47 53 -47 60 0 23 27 16 48
-13 11 -16 23 -25 26 -22 3 3 2 39 -2 80 -5 41 -7 97 -6 124 2 28 3 60 3 73 1
13 7 22 16 22 8 0 15 5 15 10 0 6 3 10 6 10 3 0 3 -11 0 -25z m1384 -124 c0
-44 -25 -75 -41 -50 -14 22 -11 57 8 78 22 27 33 18 33 -28z m-1195 -520 c3
-5 1 -12 -5 -16 -5 -3 -10 1 -10 9 0 18 6 21 15 7z m71 -33 c-6 -4 -7 -8 -1
-9 14 -1 -27 -17 -45 -18 -13 -1 -13 0 0 9 13 8 13 10 1 10 -13 0 -13 2 -2 13
11 10 14 9 18 -1 3 -6 9 -10 13 -7 5 3 6 13 3 22 -6 15 -5 16 9 3 11 -11 12
-17 4 -22z m-56 -58 c0 -5 -5 -10 -11 -10 -5 0 -7 5 -4 10 3 6 8 10 11 10 2 0
4 -4 4 -10z m-183 -372 c-3 -8 -6 -5 -6 6 -1 11 2 17 5 13 3 -3 4 -12 1 -19z"/>
<path d="M1415 3130 c-3 -5 -1 -10 4 -10 6 0 11 5 11 10 0 6 -2 10 -4 10 -3 0
-8 -4 -11 -10z"/>
<path d="M1390 2920 c0 -22 5 -40 10 -40 6 0 10 18 10 40 0 22 -4 40 -10 40
-5 0 -10 -18 -10 -40z"/>
<path d="M1313 3993 c9 -2 25 -2 35 0 9 3 1 5 -18 5 -19 0 -27 -2 -17 -5z"/>
<path d="M2104 3973 c80 -92 119 -140 128 -159 5 -11 19 -26 30 -33 19 -12 20
-11 14 6 -4 10 -18 50 -31 88 -42 127 -40 125 -107 125 l-58 0 24 -27z"/>
<path d="M2505 3967 c226 -123 370 -274 476 -501 95 -204 129 -373 136 -674 5
-211 7 -224 27 -237 11 -8 32 -15 47 -15 32 0 38 17 40 105 1 59 2 59 10 20 5
-22 13 -65 19 -96 11 -56 12 -57 53 -68 52 -13 51 -13 117 -91 30 -36 61 -70
69 -76 17 -14 47 -7 81 18 14 10 46 22 71 26 26 5 58 20 73 33 41 38 145 87
214 100 l62 12 0 738 0 739 -777 0 -778 0 60 -33z m681 -998 c6 -54 -11 -34
-21 26 -6 31 -5 37 5 29 6 -6 14 -31 16 -55z m18 -71 c3 -13 5 -34 5 -48 -1
-24 -1 -24 -14 5 -16 35 -19 65 -6 65 5 0 11 -10 15 -22z"/>
<path d="M2393 3773 c2 -12 6 -26 10 -29 11 -11 8 19 -3 36 -8 12 -9 10 -7 -7z"/>
<path d="M2410 3721 c0 -6 4 -13 10 -16 6 -3 7 1 4 9 -7 18 -14 21 -14 7z"/>
<path d="M2126 3437 c3 -10 9 -15 12 -12 3 3 0 11 -7 18 -10 9 -11 8 -5 -6z"/>
<path d="M2107 3405 c3 -22 7 -42 9 -44 8 -9 2 45 -6 64 -7 14 -8 8 -3 -20z"/>
<path d="M2170 3323 c0 -5 5 -15 10 -23 8 -12 10 -11 10 8 0 12 -4 22 -10 22
-5 0 -10 -3 -10 -7z"/>
<path d="M2160 3271 c0 -7 -5 -9 -11 -5 -16 10 -3 -40 19 -74 l17 -26 6 34 c5
28 7 22 8 -27 1 -51 4 -61 16 -57 11 5 15 -1 15 -22 1 -24 2 -26 11 -12 7 13
5 26 -6 47 -8 17 -15 40 -15 53 0 30 -29 110 -30 83 -1 -20 -1 -20 -15 -1 -8
11 -15 14 -15 7z"/>
<path d="M2300 3055 c0 -8 4 -15 10 -15 5 0 7 7 4 15 -4 8 -8 15 -10 15 -2 0
-4 -7 -4 -15z"/>
<path d="M1632 2700 c0 -14 2 -19 5 -12 2 6 2 18 0 25 -3 6 -5 1 -5 -13z"/>
<path d="M1478 2635 c-4 -22 -8 -53 -8 -70 1 -25 2 -27 11 -12 5 9 9 41 7 70
l-3 52 -7 -40z"/>
<path d="M2351 2464 c0 -11 3 -14 6 -6 3 7 2 16 -1 19 -3 4 -6 -2 -5 -13z"/>
<path d="M2431 2463 c-1 -12 -6 -25 -11 -28 -6 -3 -8 -23 -5 -43 3 -20 -1 -84
-8 -142 -8 -58 -11 -109 -7 -114 5 -5 6 -16 3 -25 -4 -9 -2 -13 3 -8 5 5 10
27 11 50 0 23 6 102 13 175 6 74 9 139 6 145 -2 7 -5 2 -5 -10z"/>
<path d="M2551 2357 c0 -66 13 -96 59 -135 13 -11 11 -12 -10 -6 -14 3 -29 10
-34 15 -13 11 -26 12 -26 1 0 -5 10 -14 23 -21 l22 -12 -22 5 c-13 2 -26 0
-29 -5 -3 -6 -14 -54 -23 -109 -13 -70 -15 -102 -8 -109 8 -8 7 -11 -1 -11
-20 0 -13 -16 12 -28 37 -17 108 -23 141 -13 17 5 22 10 13 10 -9 1 -20 6 -24
12 -4 6 1 9 12 8 11 -2 32 5 47 15 21 14 31 16 40 7 6 -6 16 -11 22 -11 5 1
-1 10 -14 20 -21 18 -20 25 2 21 12 -2 8 29 -5 34 -9 4 -13 25 -12 63 1 79 -8
101 -77 172 -32 34 -59 67 -59 73 -1 7 -11 25 -24 41 l-24 29 -1 -66z m144
-227 c-3 -5 -10 -10 -16 -10 -5 0 -9 5 -9 10 0 6 7 10 16 10 8 0 12 -4 9 -10z
m-41 -54 c-21 -15 -30 -14 -19 3 3 6 14 11 23 11 13 0 13 -2 -4 -14z m16 -84
c0 -4 -9 -8 -19 -8 -11 0 -17 4 -15 8 3 4 12 8 20 8 8 0 14 -4 14 -8z m-110
-38 l25 -15 -25 7 c-14 3 -29 10 -34 15 -16 14 6 10 34 -7z"/>
<path d="M1948 2233 c7 -3 16 -2 19 1 4 3 -2 6 -13 5 -11 0 -14 -3 -6 -6z"/>
<path d="M3630 2186 c0 -6 4 -16 9 -21 10 -12 59 -178 62 -215 4 -34 -9 -67
-26 -74 -8 -3 -15 -16 -15 -29 0 -21 7 -26 43 -35 60 -16 112 -62 131 -119 29
-85 18 -140 -41 -194 -43 -41 -64 -48 -146 -51 -42 -2 -77 -6 -77 -9 0 -13
128 -67 185 -79 36 -8 89 -10 135 -6 66 5 73 4 57 -8 -46 -35 -187 -30 -290
10 -34 13 -63 24 -66 24 -9 0 32 -35 112 -94 42 -32 77 -61 77 -63 0 -18 -78
16 -156 68 l-91 60 -109 6 c-60 3 -122 11 -138 19 -16 8 -33 14 -38 14 -20 0
24 -212 74 -355 55 -161 71 -195 90 -195 11 0 47 -13 81 -29 52 -25 89 -33
232 -49 146 -17 174 -17 197 -6 15 8 38 14 53 14 l25 0 0 669 c0 661 0 670
-20 676 -11 3 -20 10 -20 14 0 5 -26 20 -57 33 -46 20 -81 27 -165 31 -83 5
-108 3 -108 -7z"/>
<path d="M1465 2150 c4 -6 11 -8 16 -5 14 9 11 15 -7 15 -8 0 -12 -5 -9 -10z"/>
<path d="M1820 1961 c0 -5 15 -25 33 -44 18 -19 31 -39 30 -44 -2 -6 2 -10 9
-11 7 -1 33 -5 58 -8 25 -3 51 -13 58 -22 7 -9 12 -11 12 -4 0 7 16 13 38 13
31 1 29 3 -18 10 -30 4 -75 12 -100 17 l-45 10 40 2 c38 2 39 3 10 9 -16 4
-29 12 -27 19 1 7 -2 12 -6 12 -5 0 -22 11 -38 25 -29 25 -54 33 -54 16z"/>
<path d="M1120 1934 c-24 -13 -24 -14 18 -14 31 0 42 4 42 15 0 18 -26 18 -60
-1z"/>
<path d="M2760 1821 c0 -21 -5 -31 -15 -31 -9 0 -20 -11 -25 -25 -5 -14 -16
-25 -25 -25 -8 0 -15 -9 -15 -19 0 -26 -30 -35 -45 -14 -7 9 -11 23 -8 30 3 8
-2 13 -12 13 -12 0 -15 -5 -11 -17 5 -11 -1 -23 -16 -35 l-23 -19 38 7 c32 5
37 4 37 -14 0 -25 -51 -37 -96 -20 -31 11 -34 10 -86 -40 -50 -48 -56 -58 -72
-129 -23 -104 -44 -172 -62 -205 -8 -14 -15 -37 -15 -50 -1 -12 -5 1 -10 31
-5 31 -6 58 0 65 5 6 12 22 16 36 l8 25 -21 -25 c-18 -21 -21 -22 -22 -7 0 9
-4 25 -9 35 -6 9 -13 31 -17 47 -5 21 -8 25 -11 13 -4 -16 -94 -85 -213 -163
-57 -38 -109 -89 -143 -140 -15 -22 -52 -63 -83 -90 -88 -78 -113 -105 -165
-178 l-48 -68 27 -39 c15 -22 35 -39 44 -40 9 0 20 -5 24 -12 4 -6 3 -9 -2 -6
-5 3 -18 1 -29 -3 -18 -9 -18 -9 3 -5 12 2 22 -1 22 -7 0 -7 8 -1 18 13 9 14
58 66 108 115 82 81 104 96 218 153 69 34 128 62 131 62 3 0 5 -7 5 -15 0 -8
6 -15 13 -15 16 1 47 25 47 38 0 8 13 9 38 3 1 -1 -7 -11 -19 -23 -12 -13 -39
-46 -61 -75 -33 -43 -38 -55 -28 -70 11 -17 11 -17 6 0 -6 18 6 31 102 119 12
11 25 31 28 44 3 12 13 25 22 27 12 3 10 5 -5 6 -21 1 -22 2 -5 30 9 16 21 27
28 24 6 -2 21 8 33 24 11 15 24 33 28 38 5 6 15 23 23 39 13 25 13 29 -3 41
-12 8 -14 15 -8 20 6 3 11 1 11 -4 0 -6 5 -11 10 -11 6 0 10 6 10 13 0 7 8 23
17 37 9 13 18 33 18 44 1 10 9 24 18 30 11 9 12 17 6 29 -8 13 -6 15 6 11 10
-4 15 0 15 11 0 9 11 31 25 49 14 18 25 38 25 44 0 7 9 12 20 12 11 0 20 -4
20 -10 0 -5 -9 -15 -20 -22 -11 -7 -20 -21 -20 -31 0 -10 -7 -28 -16 -42 -14
-22 -14 -24 3 -33 19 -10 30 -61 16 -71 -5 -3 -19 -38 -33 -78 -23 -70 -42
-94 -56 -72 -3 6 -1 16 5 22 6 6 11 22 10 36 l-1 26 -7 -25 c-11 -33 -42 -89
-106 -185 -29 -44 -67 -106 -84 -137 l-32 -57 33 1 c23 0 47 12 78 37 25 21
73 55 108 76 35 21 70 48 78 59 8 11 14 16 14 11 0 -6 6 -3 13 5 7 8 28 24 47
34 49 26 101 78 95 94 -2 7 0 10 5 7 6 -3 10 -2 10 3 0 4 9 18 21 30 11 12 17
27 13 34 -5 8 -1 9 12 5 18 -7 18 -7 1 7 -23 18 -18 52 7 49 11 0 15 4 12 13
-3 7 -1 16 4 19 6 4 9 30 9 58 -1 29 -3 44 -6 35 -3 -11 -14 -18 -27 -18 -19
0 -24 8 -34 51 -7 28 -12 99 -12 159 l0 108 29 5 c24 5 29 12 33 42 2 19 1 35
-3 35 -4 0 -14 3 -23 6 -13 5 -16 -1 -16 -25z m-225 -210 c3 -5 1 -12 -5 -16
-5 -3 -10 1 -10 9 0 18 6 21 15 7z m-52 -56 c-3 -9 -8 -14 -10 -11 -3 3 -2 9
2 15 9 16 15 13 8 -4z m-50 -20 c-3 -9 -8 -14 -10 -11 -3 3 -2 9 2 15 9 16 15
13 8 -4z m77 -19 c0 -3 -4 -8 -10 -11 -5 -3 -10 -1 -10 4 0 6 5 11 10 11 6 0
10 -2 10 -4z m174 -148 c-2 -18 -6 -51 -9 -74 -2 -22 -11 -53 -20 -70 -8 -16
-18 -45 -21 -64 -4 -27 -15 -41 -42 -58 -61 -37 -75 -46 -94 -63 -17 -14 -68
-15 -68 -2 0 3 11 3 25 1 14 -3 25 -2 25 2 0 5 14 24 32 44 17 20 33 46 34 58
8 62 19 94 36 106 10 8 17 19 15 25 -6 18 31 87 47 87 8 0 17 11 20 25 9 36
24 22 20 -17z m-454 -14 c0 -20 -24 -83 -30 -79 -4 2 -7 -12 -6 -33 l1 -37
-95 -47 c-114 -57 -125 -59 -102 -18 11 20 23 29 34 26 14 -3 16 -1 8 14 -8
15 -5 19 16 24 17 5 24 12 20 21 -3 9 1 15 9 15 14 0 17 5 19 39 1 8 8 16 16
18 13 4 13 3 0 -6 -8 -6 -10 -11 -5 -11 18 0 36 17 39 35 2 11 8 21 14 23 6 2
8 -5 5 -19 -4 -16 -2 -20 8 -17 8 3 13 15 12 27 -2 13 1 20 7 16 6 -3 10 -1
10 4 0 6 5 11 10 11 6 0 10 -3 10 -6z m236 -202 c-18 -16 -18 -16 -6 6 6 13
14 21 18 18 3 -4 -2 -14 -12 -24z m214 14 c0 -3 -4 -8 -10 -11 -5 -3 -10 -1
-10 4 0 6 5 11 10 11 6 0 10 -2 10 -4z m-175 -66 c-10 -11 -20 -18 -23 -15 -7
6 18 35 31 35 5 0 2 -9 -8 -20z m-58 -96 c-3 -3 -12 -4 -19 -1 -8 3 -5 6 6 6
11 1 17 -2 13 -5z m-715 -88 c24 -17 12 -26 -24 -19 -28 5 -29 4 -26 -23 2
-18 12 -33 28 -41 l25 -13 -25 0 c-47 0 -63 75 -21 100 21 12 23 12 43 -4z"/>
<path d="M2215 1540 c-3 -5 -1 -10 4 -10 6 0 11 5 11 10 0 6 -2 10 -4 10 -3 0
-8 -4 -11 -10z"/>
<path d="M2811 1534 c0 -11 3 -14 6 -6 3 7 2 16 -1 19 -3 4 -6 -2 -5 -13z"/>
<path d="M2097 1524 c4 -12 3 -15 -5 -10 -8 5 -10 1 -5 -10 4 -11 3 -15 -4
-11 -17 11 -52 -56 -46 -87 8 -39 22 -42 49 -10 13 16 28 34 33 41 16 19 25
63 12 63 -6 0 -11 -5 -11 -12 0 -6 -3 -8 -6 -5 -4 4 -1 13 5 21 10 12 8 17 -8
26 -17 9 -20 8 -14 -6z"/>
<path d="M1318 1456 c18 -16 36 -26 39 -22 3 3 -2 8 -11 12 -9 3 -13 10 -10
15 3 5 1 9 -5 9 -5 0 -18 3 -28 7 -10 4 -3 -6 15 -21z"/>
<path d="M1750 1434 c0 -8 5 -12 10 -9 6 3 10 10 10 16 0 5 -4 9 -10 9 -5 0
-10 -7 -10 -16z"/>
<path d="M2475 1329 c-11 -16 -1 -19 13 -3 7 8 8 14 3 14 -5 0 -13 -5 -16 -11z"/>
<path d="M2785 1217 c-11 -13 -18 -37 -11 -37 2 0 11 11 20 25 17 25 9 35 -9
12z"/>
<path d="M1440 1136 c0 -2 7 -16 14 -32 8 -15 13 -31 10 -36 -9 -14 10 -8 51
17 31 20 35 25 19 25 -12 0 -38 7 -58 15 -20 8 -36 13 -36 11z"/>
<path d="M1204 1054 c3 -9 6 -18 6 -20 0 -3 4 -3 10 1 11 7 2 35 -12 35 -6 0
-7 -7 -4 -16z"/>
<path d="M1326 1012 c-3 -5 1 -9 9 -9 8 0 12 4 9 9 -3 4 -7 8 -9 8 -2 0 -6 -4
-9 -8z"/>
<path d="M1273 993 c-4 -10 -13 -22 -20 -26 -7 -5 -11 -12 -9 -16 3 -4 -8 -21
-24 -36 -34 -32 -41 -21 -10 13 14 14 16 22 8 22 -7 1 0 8 15 16 15 8 25 19
22 24 -9 15 -25 12 -25 -4 0 -8 -9 -18 -20 -21 -12 -4 -19 -14 -18 -23 2 -11
-4 -17 -17 -18 -27 -1 -65 -22 -65 -34 0 -6 -28 -24 -62 -40 -63 -31 -102 -61
-119 -92 -16 -30 6 -20 24 11 15 27 82 69 133 85 18 5 22 2 27 -24 10 -46 47
-40 116 16 55 45 56 46 62 23 14 -59 -30 -118 -146 -198 -80 -55 -35 -47 61
11 102 62 130 100 118 162 -3 20 -9 34 -13 32 -4 -3 -7 6 -6 19 0 13 13 37 29
54 17 17 24 31 18 31 -7 0 -12 -5 -12 -11 0 -5 -5 -7 -12 -3 -7 5 -8 3 -3 -6
5 -8 3 -11 -6 -8 -8 3 -13 12 -11 21 2 11 -2 15 -13 11 -8 -3 -15 -1 -15 4 0
6 8 13 18 15 16 4 16 5 -1 6 -10 0 -21 -7 -24 -16z m25 -42 c10 -6 3 -16 -26
-40 -39 -30 -62 -39 -62 -23 0 14 49 52 68 52 14 0 15 2 2 10 -8 5 -10 10 -5
10 6 0 16 -4 23 -9z m-133 -51 c-3 -5 -12 -10 -18 -10 -7 0 -6 4 3 10 19 12
23 12 15 0z"/>
<path d="M2111 857 c-13 -21 -12 -21 5 -5 10 10 16 20 13 22 -3 3 -11 -5 -18
-17z"/>
<path d="M2039 843 c-13 -16 -12 -17 4 -4 16 13 21 21 13 21 -2 0 -10 -8 -17
-17z"/>
<path d="M2455 849 c-4 -6 -5 -12 -2 -15 2 -3 7 2 10 11 7 17 1 20 -8 4z"/>
<path d="M3220 855 c1 -5 12 -32 25 -60 13 -27 22 -51 20 -53 -2 -3 -27 5 -54
17 -67 29 -87 27 -121 -12 -17 -19 -47 -39 -72 -47 l-43 -13 83 -18 c79 -17
244 -83 290 -115 26 -18 152 -273 152 -308 0 -14 9 -49 20 -78 12 -31 20 -77
20 -110 l0 -58 230 0 230 0 0 106 c0 86 -6 126 -31 222 -17 64 -33 119 -36
122 -2 3 -59 7 -126 10 l-122 5 0 27 c-1 16 -12 37 -29 53 -31 29 -125 79
-133 71 -3 -3 6 -25 21 -50 14 -24 26 -51 26 -58 0 -18 -166 156 -208 219 -19
29 -43 55 -53 58 -11 4 -35 23 -54 43 -19 20 -35 33 -35 27z m764 -703 c3 -5
-34 -19 -82 -31 -108 -29 -152 -36 -152 -23 0 9 33 20 145 46 73 17 82 18 89
8z"/>
<path d="M1814 778 c-14 -29 -54 -80 -88 -113 -33 -33 -74 -80 -89 -103 -26
-41 -30 -43 -46 -28 -10 9 -27 16 -38 16 -26 0 -36 25 -22 51 7 14 7 24 0 33
-7 8 -3 28 14 65 28 59 34 96 8 41 -10 -19 -21 -39 -26 -45 -5 -5 -23 -37 -41
-70 -26 -47 -39 -61 -62 -65 -19 -4 -3 -8 49 -12 76 -6 98 -15 145 -56 17 -15
21 -27 18 -55 -8 -62 -23 -75 -75 -69 l-46 4 35 -24 35 -25 23 20 c12 11 22
24 22 29 0 4 8 16 18 27 9 10 30 33 46 52 77 92 208 219 224 219 12 0 -22 -74
-48 -108 -58 -73 -107 -380 -81 -505 12 -56 13 -57 46 -57 33 0 35 2 51 57 9
32 34 94 54 138 21 44 49 105 62 135 14 30 42 79 61 108 22 31 34 60 31 70 -4
10 -2 13 3 7 4 -5 15 -12 23 -13 8 -2 12 0 8 4 -11 10 52 85 65 77 7 -3 9 -2
4 2 -4 5 3 20 15 34 13 14 15 19 6 12 -10 -7 -18 -10 -18 -6 0 4 -6 2 -13 -4
-8 -6 -18 -7 -22 -3 -5 4 -5 -1 -2 -11 4 -11 3 -16 -3 -12 -6 3 -10 15 -10 26
0 11 4 18 8 15 4 -3 3 15 -2 40 -11 46 -27 55 -53 29 -9 -10 -23 -13 -35 -9
-12 4 -24 1 -30 -7 -6 -10 -7 -6 -3 11 4 14 16 33 27 43 12 10 18 25 15 36 -2
10 0 27 5 37 5 10 -16 -7 -46 -39 -64 -66 -67 -66 -134 7 -23 25 -47 46 -52
46 -5 0 -21 -24 -36 -52z m256 -7 c0 -5 -7 -12 -16 -15 -14 -5 -15 -4 -4 9 14
17 20 19 20 6z"/>
<path d="M1995 780 c-9 -16 -13 -30 -11 -30 3 0 12 14 21 30 9 17 13 30 11 30
-3 0 -12 -13 -21 -30z"/>
<path d="M2190 770 c0 -5 4 -10 9 -10 6 0 13 5 16 10 3 6 -1 10 -9 10 -9 0
-16 -4 -16 -10z"/>
<path d="M2151 748 c1 -29 14 -47 28 -39 9 6 10 11 3 15 -6 4 -9 13 -5 21 3 9
-1 15 -11 15 -9 0 -16 -6 -15 -12z"/>
<path d="M3465 729 c-4 -6 -5 -13 -1 -16 8 -8 56 6 56 17 0 13 -47 13 -55 -1z"/>
<path d="M890 716 c-6 -8 -18 -12 -26 -9 -8 3 -17 -3 -21 -13 -4 -10 -18 -29
-32 -42 l-26 -24 25 16 c80 51 109 72 110 79 0 12 -17 8 -30 -7z"/>
<path d="M2230 720 c8 -5 20 -10 25 -10 6 0 3 5 -5 10 -8 5 -19 10 -25 10 -5
0 -3 -5 5 -10z"/>
<path d="M3495 700 c-3 -5 -1 -10 4 -10 6 0 11 5 11 10 0 6 -2 10 -4 10 -3 0
-8 -4 -11 -10z"/>
<path d="M2460 670 c-9 -6 -10 -10 -3 -10 6 0 15 5 18 10 8 12 4 12 -15 0z"/>
<path d="M2385 652 c3 -4 20 -7 36 -8 39 -2 28 9 -12 12 -17 1 -28 -1 -24 -4z"/>
<path d="M2775 654 c-5 -2 -53 -8 -106 -12 -72 -7 -101 -14 -116 -28 -11 -10
-40 -37 -63 -59 -134 -125 -213 -263 -260 -449 -26 -103 -26 -106 10 -106 21
0 34 8 47 28 10 15 24 33 31 41 7 7 10 16 7 19 -3 4 -10 0 -14 -7 -5 -7 -11
-9 -14 -4 -10 16 35 125 79 193 61 94 274 297 363 346 69 39 76 44 61 43 -8 0
-19 -2 -25 -5z"/>
<path d="M1585 640 c4 -6 11 -8 16 -5 14 9 11 15 -7 15 -8 0 -12 -5 -9 -10z"/>
<path d="M2270 600 c-8 -5 -12 -12 -9 -15 4 -3 12 1 19 10 14 17 11 19 -10 5z"/>
<path d="M2368 593 c6 -2 18 -2 25 0 6 3 1 5 -13 5 -14 0 -19 -2 -12 -5z"/>
<path d="M756 557 c3 -10 9 -15 12 -12 3 3 0 11 -7 18 -10 9 -11 8 -5 -6z"/>
<path d="M2140 473 c-12 -12 -17 -23 -12 -23 6 0 17 9 25 20 8 11 16 17 19 14
3 -3 8 -1 12 4 11 19 -22 8 -44 -15z"/>
<path d="M771 334 c0 -11 3 -14 6 -6 3 7 2 16 -1 19 -3 4 -6 -2 -5 -13z"/>
<path d="M1486 221 c-4 -5 -2 -20 3 -33 10 -23 10 -23 10 4 1 21 7 28 29 31
26 4 25 4 -5 6 -17 0 -34 -3 -37 -8z"/>
<path d="M1721 174 c0 -11 3 -14 6 -6 3 7 2 16 -1 19 -3 4 -6 -2 -5 -13z"/>
<path d="M1490 131 c0 -20 -9 -25 -140 -67 -47 -15 -103 -35 -125 -45 l-40
-19 49 0 c45 0 185 40 211 61 15 11 30 -2 43 -36 9 -26 11 -20 11 48 1 42 -1
77 -4 77 -3 0 -5 -8 -5 -19z"/>
<path d="M2325 20 c3 -5 8 -10 11 -10 2 0 4 5 4 10 0 6 -5 10 -11 10 -5 0 -7
-4 -4 -10z"/>
</g>
</svg>
